# xmcd
#
# Track frame offsets: 
#        150
#        18992
#        34270
#        45817
#        56065
#        77527
#        90504
#        104615
#        124915
#        144267
#        159900
#        175215
#        192010
#        206632
#        225987
#        238777
#        253097
#        267680
#        281625
#        292105
#
# Disc length: 4038 seconds
#
# Revision: 0
# Processed by: cddbd v1.5.2PL0 Copyright (c) Steve Scherf et al.
# Submitted via: ExactAudioCopy v1.0b3
#
DISCID=170fc414
DTITLE=Various Artist - DVORANA COUNTRY 4
DYEAR=1998
DGENRE=Country
TTITLE0=KRIS KRISTOFFERSON - Me And Bobby McGee
TTITLE1=KRIS KRISTOFFERSON - For The Good Times
TTITLE2=KRIS KRISTOFFERSON - Gettin' By, High And Strange
TTITLE3=KRIS KRISTOFFERSON - Help Me Make It Through The Night
TTITLE4=KRIS KRISTOFFERSON - When She's Wrong
TTITLE5=KRIS KRISTOFFERSON - It Sure Was (Love)
TTITLE6=KRIS KRISTOFFERSON - Smokey Put The Sweat On Me
TTITLE7=KRIS KRISTOFFERSON - Sunday Mornin' Comin' Down
TTITLE8=KRIS KRISTOFFERSON - The Silver Tongued Devil
TTITLE9=KRIS KRISTOFFERSON - Why Me
TTITLE10=DOLLY PARTON - My Tennessee Mountain Home (live)
TTITLE11=DOLLY PARTON - Jolene
TTITLE12=DOLLY PARTON - Everything Is Beautiful (In It's Own Way)
TTITLE13=DOLLY PARTON - White Limozeen
TTITLE14=DOLLY PARTON - To Daddy (live)
TTITLE15=DOLLY PARTON - Eagle When She Flies
TTITLE16=DOLLY PARTON - Coat Of Many Colors (live)
TTITLE17=DOLLY PARTON - Let Her Fly
TTITLE18=DOLLY PARTON - Lovesick Blues
TTITLE19=DOLLY PARTON - Silver Threads And Golden Needles
EXTD=
EXTT0=
EXTT1=
EXTT2=
EXTT3=
EXTT4=
EXTT5=
EXTT6=
EXTT7=
EXTT8=
EXTT9=
EXTT10=
EXTT11=
EXTT12=
EXTT13=
EXTT14=
EXTT15=
EXTT16=
EXTT17=
EXTT18=
EXTT19=
PLAYORDER=
